<mxfile host="app.diagrams.net" modified="2023-09-22T13:16:02.369Z" agent="Mozilla/5.0 (Windows NT 10.0; Win64; x64) AppleWebKit/537.36 (KHTML, like Gecko) Chrome/117.0.0.0 Safari/537.36" etag="TxSguPnvUsP6Scovfw8z" version="21.8.0" type="device">
  <diagram id="C5RBs43oDa-KdzZeNtuy" name="Page-1">
    <mxGraphModel dx="1050" dy="534" grid="1" gridSize="10" guides="1" tooltips="1" connect="1" arrows="1" fold="1" page="1" pageScale="1" pageWidth="827" pageHeight="1169" math="0" shadow="0">
      <root>
        <mxCell id="WIyWlLk6GJQsqaUBKTNV-0" />
        <mxCell id="WIyWlLk6GJQsqaUBKTNV-1" parent="WIyWlLk6GJQsqaUBKTNV-0" />
        <mxCell id="-VzZE8H93fisYDnoOtbx-6" style="edgeStyle=orthogonalEdgeStyle;rounded=0;orthogonalLoop=1;jettySize=auto;html=1;" edge="1" parent="WIyWlLk6GJQsqaUBKTNV-1" source="-VzZE8H93fisYDnoOtbx-0" target="-VzZE8H93fisYDnoOtbx-1">
          <mxGeometry relative="1" as="geometry" />
        </mxCell>
        <mxCell id="-VzZE8H93fisYDnoOtbx-0" value="Definir projeto ( esboço, tema )" style="rounded=1;whiteSpace=wrap;html=1;fillColor=#FFF48F;" vertex="1" parent="WIyWlLk6GJQsqaUBKTNV-1">
          <mxGeometry x="160" y="160" width="120" height="80" as="geometry" />
        </mxCell>
        <mxCell id="-VzZE8H93fisYDnoOtbx-7" style="edgeStyle=orthogonalEdgeStyle;rounded=0;orthogonalLoop=1;jettySize=auto;html=1;" edge="1" parent="WIyWlLk6GJQsqaUBKTNV-1" source="-VzZE8H93fisYDnoOtbx-1" target="-VzZE8H93fisYDnoOtbx-2">
          <mxGeometry relative="1" as="geometry" />
        </mxCell>
        <mxCell id="-VzZE8H93fisYDnoOtbx-1" value="Analisar ferramentas e tecnologias" style="rounded=1;whiteSpace=wrap;html=1;fillColor=#FFF48F;" vertex="1" parent="WIyWlLk6GJQsqaUBKTNV-1">
          <mxGeometry x="400" y="160" width="120" height="80" as="geometry" />
        </mxCell>
        <mxCell id="-VzZE8H93fisYDnoOtbx-8" style="edgeStyle=orthogonalEdgeStyle;rounded=0;orthogonalLoop=1;jettySize=auto;html=1;entryX=0;entryY=0.5;entryDx=0;entryDy=0;exitX=0.5;exitY=1;exitDx=0;exitDy=0;" edge="1" parent="WIyWlLk6GJQsqaUBKTNV-1" source="-VzZE8H93fisYDnoOtbx-2" target="-VzZE8H93fisYDnoOtbx-3">
          <mxGeometry relative="1" as="geometry" />
        </mxCell>
        <mxCell id="-VzZE8H93fisYDnoOtbx-2" value="Desenvolvimento do esqueleto do sistema" style="rounded=1;whiteSpace=wrap;html=1;fillColor=#FFF48F;" vertex="1" parent="WIyWlLk6GJQsqaUBKTNV-1">
          <mxGeometry x="640" y="160" width="120" height="80" as="geometry" />
        </mxCell>
        <mxCell id="-VzZE8H93fisYDnoOtbx-9" style="edgeStyle=orthogonalEdgeStyle;rounded=0;orthogonalLoop=1;jettySize=auto;html=1;" edge="1" parent="WIyWlLk6GJQsqaUBKTNV-1" source="-VzZE8H93fisYDnoOtbx-3" target="-VzZE8H93fisYDnoOtbx-4">
          <mxGeometry relative="1" as="geometry" />
        </mxCell>
        <mxCell id="-VzZE8H93fisYDnoOtbx-3" value="Codificação do projeto / sistema" style="rounded=1;whiteSpace=wrap;html=1;fillColor=#FFF48F;" vertex="1" parent="WIyWlLk6GJQsqaUBKTNV-1">
          <mxGeometry x="160" y="320" width="120" height="80" as="geometry" />
        </mxCell>
        <mxCell id="-VzZE8H93fisYDnoOtbx-10" style="edgeStyle=orthogonalEdgeStyle;rounded=0;orthogonalLoop=1;jettySize=auto;html=1;" edge="1" parent="WIyWlLk6GJQsqaUBKTNV-1" source="-VzZE8H93fisYDnoOtbx-4" target="-VzZE8H93fisYDnoOtbx-5">
          <mxGeometry relative="1" as="geometry" />
        </mxCell>
        <mxCell id="-VzZE8H93fisYDnoOtbx-4" value="Verificação do sistema na codificação&amp;nbsp;" style="rounded=1;whiteSpace=wrap;html=1;fillColor=#FFF48F;" vertex="1" parent="WIyWlLk6GJQsqaUBKTNV-1">
          <mxGeometry x="400" y="320" width="120" height="80" as="geometry" />
        </mxCell>
        <mxCell id="-VzZE8H93fisYDnoOtbx-5" value="Manutenções e melhorias para o sistema" style="rounded=1;whiteSpace=wrap;html=1;fillColor=#FFF48F;" vertex="1" parent="WIyWlLk6GJQsqaUBKTNV-1">
          <mxGeometry x="640" y="320" width="120" height="80" as="geometry" />
        </mxCell>
      </root>
    </mxGraphModel>
  </diagram>
</mxfile>
